<?xml version="1.0" encoding="UTF-8" standalone="no"?>
<svg
   xmlns:dc="http://purl.org/dc/elements/1.1/"
   xmlns:cc="http://creativecommons.org/ns#"
   xmlns:rdf="http://www.w3.org/1999/02/22-rdf-syntax-ns#"
   xmlns:svg="http://www.w3.org/2000/svg"
   xmlns="http://www.w3.org/2000/svg"
   xmlns:sodipodi="http://sodipodi.sourceforge.net/DTD/sodipodi-0.dtd"
   xmlns:inkscape="http://www.inkscape.org/namespaces/inkscape"
   version="1.1"
   xml:space="preserve"
   x="0px"
   y="0px"
   width="420"
   height="420"
   viewbox="0 0 363 420"
   id="svg108"
   sodipodi:docname="logo.svg"
   inkscape:version="0.92.1 r"><metadata
     id="metadata114"><rdf:RDF><cc:Work
         rdf:about=""><dc:format>image/svg+xml</dc:format><dc:type
           rdf:resource="http://purl.org/dc/dcmitype/StillImage" /><dc:title></dc:title></cc:Work></rdf:RDF></metadata><defs
     id="defs112" /><sodipodi:namedview
     pagecolor="#ffffff"
     bordercolor="#666666"
     borderopacity="1"
     objecttolerance="10"
     gridtolerance="10"
     guidetolerance="10"
     inkscape:pageopacity="0"
     inkscape:pageshadow="2"
     inkscape:window-width="2560"
     inkscape:window-height="1362"
     id="namedview110"
     showgrid="false"
     inkscape:zoom="2.7452381"
     inkscape:cx="181.5"
     inkscape:cy="210"
     inkscape:window-x="0"
     inkscape:window-y="0"
     inkscape:window-maximized="1"
     inkscape:current-layer="svg108" /><g
     transform="matrix(0.6,0,0,0.6,28.5,0)"
     id="g106"><g
       id="g88"><polygon
         points="605,175 303,0 0,175 303,350 "
         id="polygon82"
         style="fill:#e0a800" /><polygon
         points="303,350 0,175 0,525 303,700 "
         id="polygon84"
         style="fill:#ffec52" /><polygon
         points="303,350 303,700 605,525 605,175 "
         id="polygon86"
         style="fill:#f7c30f" /></g><g
       transform="matrix(-0.618,0,0,-0.618,490.254,566.3)"
       id="g96"><polygon
         points="605,175 303,0 0,175 303,350 "
         id="polygon90"
         style="fill:#e0a800" /><polygon
         points="303,350 0,175 0,525 303,700 "
         id="polygon92"
         style="fill:#ffec52" /><polygon
         points="303,350 303,700 605,525 605,175 "
         id="polygon94"
         style="fill:#f7c30f" /></g><g
       transform="matrix(0.474,0,0,0.474,159.378,184.1)"
       id="g104"><polygon
         points="605,175 303,0 0,175 303,350 "
         id="polygon98"
         style="fill:#e0a800" /><polygon
         points="303,350 0,175 0,525 303,700 "
         id="polygon100"
         style="fill:#ffec52" /><polygon
         points="303,350 303,700 605,525 605,175 "
         id="polygon102"
         style="fill:#f7c30f" /></g></g></svg>