<?xml version="1.0" encoding="utf-8"?>
<!-- Generator: Adobe Illustrator 22.0.1, SVG Export Plug-In . SVG Version: 6.00 Build 0)  -->
<svg version="1.1" id="Layer_1" xmlns="http://www.w3.org/2000/svg" xmlns:xlink="http://www.w3.org/1999/xlink" x="0px" y="0px"
	 viewBox="0 0 1122.4 1237.3" style="enable-background:new 0 0 1122.4 1237.3;" xml:space="preserve">
<style type="text/css">
	.st0{fill:#FDE860;}
	.st1{fill:#F5E11A;}
	.st2{fill:#00ADEE;}
	.st3{fill:#00A275;}
	.st4{fill:#E99D24;}
	.st5{fill:#F4BF30;}
</style>
<g>
	<g>
		<g>
			<path class="st0" d="M1107.2,327.2l-117.4,69.7L666.1,589.3c-52.9,31.3-85.8,88.8-85.8,150.3v361.7v136.1
				c24.1-2.7,46.7-9.9,67.1-21.7l387.5-222.8c54-31,87.5-89,87.5-151.2V397.2C1122.4,373.2,1117.3,349.7,1107.2,327.2z"/>
			<g>
				<path class="st1" d="M929.3,912.8c43.6-25.1,70.8-72,70.8-122.3V448.3c0-17.9-3.7-35.2-10.2-51.4L666.1,589.3
					c-52.9,31.3-85.8,88.8-85.8,150.3v361.7c17.6-2.4,34.8-7.8,50.6-16.9L929.3,912.8z"/>
				<path class="st0" d="M1107.2,327.2l-117.4,69.7c6.4,16.2,10.2,33.5,10.2,51.4v342.2c0,50.3-27.1,97.2-70.8,122.3l-298.4,171.6
					c-15.8,9.1-33,14.5-50.6,16.9v136.1c24.1-2.7,46.7-9.9,67.1-21.7l387.5-222.8c54-31,87.5-89,87.5-151.2V397.2
					C1122.4,373.2,1117.3,349.7,1107.2,327.2z"/>
			</g>
		</g>
		<g>
			<path class="st2" d="M1034.9,246L647.4,23.1C593.6-7.8,526.9-7.7,473.2,23.2L87.3,245.9c-22.2,12.8-41.6,30.9-56.4,52.5l118,68.1
				l326,188.1c37.4,22.1,67.1,55.2,85.4,94.5c18.3-39.3,48.1-72.3,85.4-94.4L969.9,362l117-69.5
				C1072.5,273.2,1055.1,257.6,1034.9,246z"/>
			<g>
				<path class="st3" d="M929.3,326L630.9,154.4c-43.4-25-97.4-25-140.8,0.1L192.9,325.9c-17.8,10.2-32.5,24.3-44,40.6l326,188.1
					c37.4,22.1,67.1,55.2,85.4,94.5c18.3-39.3,48.1-72.3,85.4-94.4L969.9,362C958.9,347.7,945.4,335.3,929.3,326z"/>
				<path class="st2" d="M1034.9,246L647.4,23.1C593.6-7.8,526.9-7.7,473.2,23.2L87.3,245.9c-22.2,12.8-41.6,30.9-56.4,52.5
					l118,68.1c11.5-16.3,26.2-30.3,44-40.6l297.2-171.4c43.4-25,97.4-25.1,140.8-0.1L929.3,326c16.1,9.3,29.6,21.7,40.6,36l117-69.5
					C1072.5,273.2,1055.1,257.6,1034.9,246z"/>
			</g>
		</g>
		<g>
			<path class="st4" d="M454.6,589.2L130.4,402.2L12.1,334C4.1,354.5,0,375.6,0,397v444.8C0,904,33.4,961.9,87.3,992.9l385.9,222.7
				c20.3,11.7,42.8,19,66.9,21.7v-136.1V739.4C540.1,678.1,507.4,620.5,454.6,589.2z"/>
			<g>
				<path class="st5" d="M192.9,912.8c-43.5-25.1-70.6-71.9-70.6-122.2V448.1c0-15.9,2.9-31.4,8-46L12.1,334
					C4.1,354.5,0,375.6,0,397v444.8C0,904,33.4,961.9,87.3,992.9l385.9,222.7c20.3,11.7,42.8,19,66.9,21.7v-136.1
					c-17.4-2.5-34.4-7.9-50.1-16.9L192.9,912.8z"/>
				<path class="st4" d="M454.6,589.2L130.4,402.2c-5.1,14.6-8,30.1-8,46v342.5c0,50.3,27,97.1,70.6,122.2l297.2,171.4
					c15.6,9,32.7,14.4,50.1,16.9V739.4C540.1,678.1,507.4,620.5,454.6,589.2z"/>
			</g>
		</g>
	</g>
</g>
</svg>
